<?xml version="1.0" encoding="UTF-8"?>
<svg width="690px" height="265px" viewBox="0 0 690 265" version="1.1" xmlns="http://www.w3.org/2000/svg" xmlns:xlink="http://www.w3.org/1999/xlink">
    <!-- Generator: Sketch 55.2 (78181) - https://sketchapp.com -->
    <title>word</title>
    <desc>Created with Sketch.</desc>
    <defs>
        <polygon id="path-1" points="0 0.646579727 689.32759 0.646579727 689.32759 264.646294 0 264.646294"></polygon>
    </defs>
    <g id="Page-1" stroke="none" stroke-width="1" fill="none" fill-rule="evenodd">
        <g id="Desktop-Copy-2" transform="translate(-90.000000, -92.000000)">
            <g id="Group" transform="translate(0.000000, 50.000000)">
                <g id="word" transform="translate(90.000000, 42.000000)">
                    <g id="Page-1">
                        <path d="M510.753031,248.814 C511.602139,248.738044 511.853993,248.403838 510.753031,248.814" id="Fill-1" fill="#FFFFFF"></path>
                        <path d="M506.254279,240.952797 C506.283862,241.139889 506.315844,241.32698 506.347825,241.515671 C506.329436,241.39654 506.298254,241.207849 506.25268,240.932009 C506.25268,240.937606 506.25348,240.944002 506.254279,240.949599 C506.254279,240.950399 506.254279,240.951998 506.254279,240.952797" id="Fill-3" fill="#FFFFFF"></path>
                        <path d="M432.874338,208.715965 C432.951094,208.624818 432.71683,208.70797 431.882913,209.245258 C431.890109,209.243659 431.898104,209.241261 431.9053,209.238862 C432.21552,209.050171 432.542531,208.88067 432.874338,208.715965" id="Fill-5" fill="#FFFFFF"></path>
                        <path d="M169.582491,216.119433 C169.616871,216.120233 169.651251,216.121032 169.685632,216.122632 C169.672039,216.118634 169.655249,216.113837 169.640857,216.109839 C169.614473,216.109039 169.588088,216.10824 169.558505,216.10824 C169.566501,216.111438 169.574496,216.115436 169.582491,216.119433" id="Fill-7" fill="#FFFFFF"></path>
                        <path d="M673.487812,140.969718 C673.554174,140.836196 673.614939,140.698676 673.685298,140.569151 C673.618137,140.693079 673.550176,140.832998 673.487812,140.969718" id="Fill-9" fill="#FFFFFF"></path>
                        <path d="M415.908813,139.01805 C415.911212,139.03484 415.913611,139.049232 415.916009,139.066022 C415.917608,139.066822 415.919207,139.067621 415.921606,139.068421 C415.918408,139.053229 415.91441,139.03564 415.912012,139.019649 C415.911212,139.019649 415.909613,139.018849 415.908813,139.01805" id="Fill-11" fill="#FFFFFF"></path>
                        <path d="M470.003774,115.875306 C469.979788,115.881702 469.956601,115.887299 469.932615,115.893695 C470.016567,115.916882 470.036555,115.906488 470.003774,115.875306" id="Fill-13" fill="#FFFFFF"></path>
                        <path d="M24.6305214,150.449983 C24.6441136,150.449183 24.6577057,150.449183 24.6720973,150.448384 C24.6696987,150.448384 24.6680997,150.447584 24.6665006,150.446784 C24.6545075,150.448384 24.6425145,150.449183 24.6305214,150.449983" id="Fill-15" fill="#FFFFFF"></path>
                        <path d="M408.822441,140.201364 C408.815246,140.214156 408.80805,140.226949 408.800054,140.238942 C408.895199,140.131804 408.975952,140.039857 409.039116,139.964701 C408.967158,140.044655 408.892001,140.120611 408.822441,140.201364" id="Fill-17" fill="#FFFFFF"></path>
                        <path d="M311.756871,211.873815 C311.936767,211.752285 312.128656,211.630756 312.333337,211.506827 C312.189421,211.580385 311.991136,211.700315 311.740881,211.874614 C311.746477,211.874614 311.751275,211.874614 311.756871,211.873815" id="Fill-19" fill="#FFFFFF"></path>
                        <g id="Group-23" transform="translate(0.000000, 0.153511)">
                            <mask id="mask-2" fill="white">
                                <use xlink:href="#path-1"></use>
                            </mask>
                            <g id="Clip-22"></g>
                            <path d="M640.92365,183.36826 C640.911657,183.344273 640.896466,183.319488 640.884473,183.295502 C640.712572,182.938109 640.408749,182.030635 640.92365,183.36826 M642.276466,185.853219 C642.26927,185.835629 642.260475,185.818839 642.25248,185.802049 C642.455562,185.882802 642.439571,185.904389 642.276466,185.853219 M510.399316,248.799928 C510.407312,248.802327 510.414508,248.804725 510.422503,248.807124 C510.372932,248.821516 510.321761,248.83111 510.274589,248.850299 C510.319363,248.83111 510.356941,248.816718 510.399316,248.799928 M466.414415,117.726313 C466.756616,117.433683 466.9581,117.239395 466.661472,117.409696 C467.298702,117.001133 467.94153,116.61016 468.601947,116.231979 C468.686698,116.629349 468.775446,117.027518 468.873789,117.411295 C468.884983,117.45607 468.892978,117.482454 468.903372,117.521632 C468.904171,117.595189 468.904971,117.666348 468.908169,117.762292 C468.935353,118.577819 469.015307,119.390148 469.038494,120.206475 C468.690695,119.914644 468.28533,119.575641 468.14861,119.450913 C467.56095,118.915224 467.040452,118.313972 466.463187,117.771087 C466.443998,117.752698 466.432804,117.743103 466.414415,117.726313 M468.011089,114.549754 C468.007092,114.546556 468.000695,114.540959 467.998297,114.53936 C468.004693,114.544957 468.008691,114.548155 468.015087,114.553752 C468.045469,114.593729 468.07905,114.642501 468.115829,114.702466 C468.056663,114.638503 467.999896,114.571342 467.950324,114.503381 C468.063059,114.721655 468.220568,114.989499 468.358088,115.211771 C468.365284,115.232559 468.37248,115.254146 468.379676,115.274934 C467.962317,114.676081 467.867972,114.446614 467.915944,114.455409 C467.841587,114.342674 467.795214,114.231539 467.808806,114.14279 C467.801611,114.188364 467.852781,114.310693 467.929537,114.462605 C467.948725,114.474598 467.97591,114.504181 468.011089,114.549754 M470.540823,115.578758 C470.527231,115.576359 470.513638,115.57476 470.498447,115.572362 C470.635168,115.525189 470.749502,115.479615 470.818262,115.439638 C470.712723,115.500403 470.632769,115.533184 470.540823,115.578758 M469.932375,115.740264 C469.8892,115.728271 469.831634,115.708283 469.750081,115.674702 C469.784461,115.659511 469.813244,115.64432 469.860417,115.632327 C469.929977,115.667506 469.980348,115.699488 470.003534,115.721875 C470.153847,115.681098 470.299363,115.637924 470.431286,115.594749 C470.453673,115.595548 470.477659,115.597147 470.500846,115.598746 C469.979548,115.8514 469.688517,115.876985 469.624554,115.81622 C469.722897,115.793034 469.826037,115.768248 469.932375,115.740264 M405.624855,153.545548 C405.642445,152.464575 405.687219,151.3852 405.767173,150.307425 C405.801553,149.842895 405.96066,148.562037 405.972654,148.34936 C406.292468,146.528016 406.745006,144.765838 407.273499,142.986869 C407.351054,142.725421 407.398227,142.543926 407.423812,142.419998 C407.485377,142.326452 407.556535,142.212918 407.65248,142.050612 C408.038656,141.39819 408.413638,140.738572 408.800614,140.085351 C408.702271,140.196487 408.590336,140.320415 408.452816,140.470728 C408.579942,140.332408 408.700672,140.189291 408.822202,140.047773 C408.838192,140.020589 408.854183,139.993404 408.870174,139.96702 C409.088447,139.599233 409.557775,139.197866 409.038876,139.81191 C409.145214,139.693578 409.249154,139.573648 409.365886,139.464111 C409.518598,139.320195 409.728876,139.15629 409.891182,138.995583 C409.889583,138.995583 409.888783,138.994783 409.887984,138.994783 C409.890382,138.992385 409.893581,138.990786 409.896779,138.988387 C409.941553,138.943613 409.983928,138.899638 410.018308,138.855664 C410.055886,138.807692 410.079873,138.774911 410.107856,138.737333 C410.166222,138.713346 410.230185,138.691759 410.301344,138.678966 C410.387694,138.663775 410.476443,138.641388 410.564392,138.622999 C410.707509,138.555838 410.847428,138.486278 410.970556,138.395131 C410.856222,138.479882 410.768273,138.535849 410.673129,138.600612 C411.001738,138.527054 411.335145,138.439905 411.668552,138.347159 C411.057706,138.546243 412.82628,138.239221 413.468308,138.229584 C413.517879,138.228827 413.649803,138.239221 413.804114,138.252813 C414.153511,138.321574 414.654021,138.412721 414.781147,138.439105 C415.003418,138.485479 415.297648,138.632593 415.544705,138.675768 C415.551101,138.678966 415.557497,138.682165 415.563893,138.685363 C415.631854,138.760519 415.702213,138.837275 415.753384,138.894042 C416.112375,139.816707 416.154751,140.447541 415.946072,139.111516 C415.954067,139.120311 415.954867,139.12191 415.962063,139.129105 C416.060406,139.608827 416.219513,140.168503 416.378621,140.599453 C416.399409,140.799337 416.419397,140.999221 416.4146,141.199105 C416.39701,141.989847 416.391414,142.775791 416.36263,143.566533 C416.350637,143.898341 416.281078,144.230148 416.273082,144.561956 C416.273082,144.577947 416.273882,144.585143 416.273082,144.600334 C416.244299,144.717066 416.211518,144.852188 416.170742,145.032083 C415.766976,146.821446 415.368007,148.587622 414.821924,150.341805 C414.543685,151.234888 414.243059,152.121574 413.925643,153.001064 C413.705771,153.610311 413.469907,154.211562 413.242039,154.817611 C413.201263,154.925548 412.955006,155.519604 412.824681,155.839418 C411.078494,159.861087 409.054867,163.759627 406.836952,167.54863 C406.776188,167.22162 406.70343,166.897008 406.645863,166.569198 C406.588297,166.241388 406.270081,164.113022 406.223708,163.908341 C406.094183,162.858549 405.977451,161.80556 405.887903,160.751771 C405.684021,158.35556 405.584878,155.949754 405.624855,153.545548 M415.695817,138.750125 C415.699015,138.758121 415.702213,138.766116 415.705411,138.773312 C415.683824,138.757321 415.661437,138.739731 415.63905,138.722141 C415.659838,138.731736 415.677428,138.74133 415.695817,138.750125 M415.921286,138.915629 C415.93248,138.978793 415.944473,139.044355 415.958864,139.112315 C415.954067,139.106718 415.947671,139.097124 415.942874,139.090728 C415.934878,139.036359 415.925284,138.973196 415.915689,138.912431 C415.870915,138.886846 415.817346,138.853265 415.756582,138.81089 C415.747787,138.795699 415.738992,138.782906 415.730197,138.767715 C415.802155,138.805293 415.86292,138.838074 415.908494,138.864459 C415.904496,138.836475 415.901298,138.814088 415.896501,138.784505 C415.900498,138.809291 415.907694,138.840473 415.911692,138.866058 C416.117972,138.986788 416.073998,139.00038 415.921286,138.915629 M368.454403,206.360531 C368.452804,206.359731 368.451205,206.360531 368.449606,206.359731 C368.056234,206.276579 367.990672,206.278178 368.093812,206.325351 C367.40781,206.231006 366.928888,206.027124 368.454403,206.360531 M324.156083,193.541562 L324.156083,193.541562 C324.016964,193.863775 323.880243,194.187587 323.736327,194.507402 C323.391727,195.268561 323.052723,196.032118 322.697729,196.78848 C321.994936,198.285212 321.256964,199.765954 320.47022,201.219511 C319.816199,202.42841 319.131796,203.620519 318.401819,204.784644 C318.043627,205.357112 317.67584,205.923984 317.294461,206.481261 C316.889896,207.072918 315.119722,209.158109 316.973048,207.020148 C316.211889,207.898839 315.507497,208.813509 314.687173,209.641029 C314.330579,210.00082 313.938007,210.327031 313.582213,210.686023 C313.206431,210.853926 312.764287,211.092987 312.333337,211.352837 C312.943384,211.041017 312.648355,211.504749 311.829629,211.715027 C311.805643,211.716626 311.780857,211.718225 311.756871,211.720623 C311.744878,211.727819 311.735284,211.735015 311.72409,211.74301 C311.715295,211.745409 311.7081,211.747808 311.699305,211.749407 C311.714496,211.739013 311.726489,211.731017 311.740881,211.721423 C311.65533,211.729418 311.572978,211.735015 311.487428,211.74461 C311.25876,211.665455 310.988517,211.595896 310.767845,211.55432 C310.406454,211.297669 309.961912,211.01863 309.571738,210.818746 C309.547752,210.806753 309.534959,210.801956 309.514971,210.792362 C309.415829,210.687622 309.300695,210.57009 309.150382,210.419778 C308.742619,210.015212 306.868505,207.613404 307.9127,209.20768 C307.696025,208.876672 307.484948,208.546463 307.273071,208.213057 C307.129954,207.969998 307.001228,207.719743 306.871703,207.468688 C306.65263,206.773092 306.467937,206.079094 306.306431,205.367506 C306.30803,205.333126 306.310429,205.30914 306.311228,205.270762 C306.32562,204.89498 306.287242,204.508005 306.292839,204.129824 C306.299235,203.674888 306.332816,203.223949 306.368795,202.772211 C306.370394,202.765815 306.371194,202.758619 306.372793,202.752222 C306.639038,201.53213 306.925272,200.336023 307.320243,199.150311 C307.491344,198.637808 307.684032,198.134899 307.872723,197.628793 C307.885516,197.592014 307.892711,197.571226 307.903105,197.542443 C307.927891,197.492072 307.947879,197.451295 307.975863,197.392929 C308.474774,196.351933 308.980881,195.319731 309.538158,194.308317 C310.771043,192.066417 312.168633,189.916463 313.654971,187.83527 C313.842063,187.573822 314.9846,186.056301 315.10613,185.878005 C315.839305,184.947344 316.59007,184.030276 317.355226,183.126 C319.181367,180.96965 321.085863,178.879662 323.043928,176.841643 C326.120545,173.639499 329.33628,170.571678 332.639965,167.603798 C332.39051,168.534459 332.155446,169.469117 331.897995,170.397379 C329.720058,178.248827 327.191124,185.978746 324.156083,193.541562 M306.364797,202.793798 C306.255261,204.047472 306.280846,203.224749 306.364797,202.793798 M340.492213,33.6182711 C340.579363,32.7275875 340.692097,31.8393024 340.781645,30.9494183 C340.796837,30.8055017 340.806431,30.701562 340.813627,30.613613 C340.829618,30.5216663 340.848007,30.4121298 340.868795,30.2802063 C341.147034,28.5707972 341.419676,26.8637868 341.789061,25.1703685 C342.086489,23.8071587 342.424693,22.4519444 342.834056,21.117518 C343.019548,20.5122688 343.245017,19.9206118 343.432908,19.3169618 C343.451298,19.2593951 343.463291,19.2178192 343.479282,19.1666489 C343.582422,18.9947486 343.686362,18.8196501 343.791101,18.6381553 C343.80949,18.6941228 343.82628,18.7444936 343.847068,18.8084565 C344.63861,21.2206582 345.299826,23.6368575 345.786744,26.1314114 C346.050591,27.4818285 346.228888,28.8450382 346.471947,30.197854 C346.49993,30.4153279 346.527914,30.6320023 346.5527,30.8494762 C346.662236,31.8233117 346.771773,32.7963476 346.866118,33.7717822 C347.616083,41.5440765 347.772793,49.3723384 347.683244,57.1758146 C347.576906,66.4552352 347.085191,75.7290591 346.34482,84.9780973 C345.957045,89.8136941 345.498911,94.6436941 344.976014,99.4664983 C344.709768,101.921075 344.426732,104.373254 344.126906,106.823833 C344.011773,107.765687 343.891842,108.707541 343.771912,109.648596 C343.624797,108.488468 343.478482,107.327541 343.338563,106.166614 C342.682943,100.740959 342.099282,95.3057103 341.597173,89.8632654 C340.65372,79.6395921 339.978911,69.3831379 339.758239,59.1162897 C339.575145,50.6188158 339.663094,42.0829641 340.492213,33.6182711 M342.196025,15.9868922 C342.212816,15.9972862 342.224009,16.014876 342.24,16.0260695 C341.890603,15.7910058 341.683523,15.652686 342.196025,15.9868922 M342.447879,16.1204148 C342.431089,16.1268111 342.426292,16.1380046 342.432688,16.156394 C342.411101,16.1420023 342.389513,16.1276107 342.368725,16.113219 C342.218413,15.8373789 342.210417,15.7126512 342.447879,16.1204148 M343.843071,18.7141112 C343.835075,18.7021182 343.824681,18.6805307 343.812688,18.654146 C343.824681,18.6725353 343.831078,18.6957219 343.843071,18.7141112 M342.657358,16.4953975 C342.68854,16.5521645 342.722121,16.6089316 342.754102,16.6648992 C342.612584,16.506591 342.492654,16.3290939 342.405504,16.1779815 C342.495052,16.277124 342.577404,16.3842619 342.657358,16.4953975 M345.725979,15.8293835 C345.678007,16.3051078 345.106338,16.6321182 344.818505,16.7168691 C344.821703,16.7096732 344.825701,16.7024774 344.828899,16.6960811 C344.959224,16.5809479 345.129525,16.4402294 345.291031,16.299511 C345.405365,16.2403453 345.422955,16.2195574 345.378181,16.223555 C345.566072,16.0564519 345.718783,15.9037404 345.725979,15.8293835 M252.512816,193.344076 C251.410255,198.388352 249.915921,203.334285 248.000232,208.128306 C247.977045,208.185873 247.961854,208.22425 247.942665,208.273022 C247.905886,208.351377 247.862711,208.444123 247.810742,208.558457 C247.636443,208.935838 247.46774,209.316417 247.291043,209.692999 C246.776141,210.792362 246.231657,211.878132 245.651993,212.943914 C244.704542,214.685305 243.654751,216.359534 242.505817,217.9714 C242.588969,217.805096 241.295319,219.424957 240.970707,219.766359 C240.422225,220.342025 239.824971,220.854528 239.259699,221.410206 C239.317265,221.376626 239.370834,221.345444 239.435597,221.308665 C239.348447,221.358236 239.269293,221.4206 239.186141,221.477367 C238.966269,221.675652 238.663244,221.856348 238.512932,221.925907 C238.455365,221.961886 238.402596,222.005861 238.341831,222.038642 C238.053998,222.191353 237.657428,222.368051 237.365597,222.565537 C237.062572,222.643092 236.717972,222.765421 236.469316,222.864563 C236.464519,222.866162 236.462121,222.867761 236.458123,222.86936 C236.050359,222.831782 235.279606,222.911736 235.062932,222.914147 C234.861448,222.915733 233.870823,222.759824 233.670939,222.743034 C233.212005,222.633497 232.757868,222.513567 232.298934,222.388039 C232.159815,222.349662 232.067068,222.327275 231.999907,222.313683 C231.89197,222.242524 231.671298,222.116997 231.241147,221.897924 C231.06445,221.807576 230.456002,221.372628 230.239328,221.235907 C229.956292,220.97206 229.678853,220.702616 229.393418,220.440368 C229.256698,220.314841 228.810556,219.753567 228.63066,219.54009 C228.262074,218.991608 227.912677,218.430334 227.594461,217.851469 C227.365794,217.43651 227.154716,217.011956 226.951634,216.583404 C226.910058,216.441886 226.532677,215.499233 226.462317,215.264969 C225.956211,213.57155 225.478888,211.893323 225.143082,210.155131 C225.023951,209.537089 224.917613,208.91505 224.824867,208.291411 C224.825666,208.181875 224.685747,206.908213 224.667358,206.697136 C223.851031,197.361747 224.533036,188.398943 226.477509,179.502501 C233.65175,184.899372 244.542236,184.667506 254.096698,183.477796 C254.015944,184.3341 253.924797,185.190403 253.822457,186.044308 C253.81606,185.986742 253.50584,188.169476 253.43628,188.578839 C253.166837,190.174714 252.859015,191.763393 252.512816,193.344076 M235.258818,165.406672 C235.051738,164.856591 235.144484,165.098051 235.258818,165.406672 M237.001808,156.476649 C237.090556,156.307947 237.572677,155.651527 237.708598,155.441249 C237.966049,155.162211 238.226698,154.88797 238.482549,154.605733 C238.554508,154.526579 238.622468,154.442628 238.685632,154.357877 C238.680035,154.369071 238.675238,154.376267 238.669641,154.38746 C238.72321,154.286718 238.948679,154.153196 239.178146,154.036463 C240.163175,153.707854 241.180985,153.49038 242.183604,153.227333 C242.510614,153.141782 242.702503,153.080218 242.820035,153.033045 C242.943163,153.045038 243.12146,153.053833 243.378111,153.05863 C243.886616,153.068225 244.418308,153.050635 244.927613,153.034644 C245.10591,153.029847 245.308992,153.053034 245.504079,153.087414 C245.416929,153.05943 245.327381,153.030647 245.222642,152.996267 C245.318586,153.028248 245.424125,153.060229 245.525666,153.091411 C246.024577,153.183358 246.453129,153.346463 246.258841,153.308086 C246.603441,153.402431 246.946443,153.484783 247.268656,153.547947 C247.564484,153.76622 248.021819,153.987692 248.326443,154.139604 C248.432781,154.192373 248.52073,154.233149 248.596686,154.26673 C248.651854,154.337089 248.719815,154.418642 248.807764,154.517784 C249.093198,154.841597 249.440197,155.188596 249.758413,155.480426 C249.823175,155.540392 249.872746,155.584366 249.925516,155.630739 C249.93511,155.64673 249.939907,155.656324 249.950301,155.673914 C250.421228,156.429476 250.913743,157.157054 251.334299,157.944598 C251.530985,158.313184 251.702086,158.694563 251.896373,159.063949 C251.904368,159.07914 251.908366,159.087136 251.915562,159.100728 C252.663129,161.188317 253.278772,163.2879 253.708922,165.465038 C253.823256,166.044702 253.916002,166.628364 254.019143,167.210426 C254.033534,167.29118 254.044728,167.347947 254.055921,167.41111 C254.059119,167.439094 254.060718,167.456684 254.063917,167.487866 C254.067914,167.528642 254.071912,167.570218 254.07591,167.610994 C249.979884,168.13549 245.867868,168.39534 241.652711,168.253822 C240.203152,168.205849 240.006466,168.240229 238.766385,167.9468 C238.263476,167.827669 237.755771,167.685351 237.263256,167.512651 C237.194496,167.437495 236.542874,167.081701 236.215064,166.889013 C236.054357,166.72191 235.870463,166.53082 235.745736,166.395699 C235.60022,166.140647 235.443511,165.864007 235.39314,165.75447 C235.277207,165.295537 235.061333,164.053057 235.008563,164.044262 C234.99657,163.625305 234.993372,163.207147 234.980391,162.785791 C234.975782,162.601898 235.063731,161.916695 235.09971,161.593683 C235.292399,160.671817 235.533859,159.770739 235.813696,158.865664 C235.867265,158.692964 235.902445,158.569835 235.931228,158.465896 C235.965608,158.397935 235.999988,158.332373 236.043963,158.243625 C236.344589,157.642373 236.689189,157.069905 237.001808,156.476649 M239.470776,153.898144 C239.745017,153.775015 239.880939,153.73264 239.470776,153.898144 M169.442572,215.95257 C169.44657,215.955768 169.450568,215.958966 169.455365,215.962165 C169.235492,215.955768 169.017219,215.946174 168.795747,215.943775 C169.055597,215.946174 169.266674,215.949372 169.442572,215.95257 M140.417798,152.535733 C140.520939,152.47257 140.623279,152.419801 140.716825,152.388619 C141.542746,152.113578 140.926304,152.347842 140.417798,152.535733 M92.306489,151.672234 C92.4432097,151.632257 92.5647393,151.612269 92.6414948,151.641052 C93.0684473,151.800959 92.9381228,151.825745 92.6534878,151.808955 C92.5615411,151.772176 92.448007,151.727402 92.306489,151.672234 M92.2865006,151.664239 C92.2665122,151.64505 92.251321,151.630658 92.230533,151.61067 C92.2497219,151.629059 92.2689108,151.646649 92.2880997,151.664239 C92.2880997,151.664239 92.2873001,151.664239 92.2865006,151.664239 M91.956292,151.732199 C91.8347625,151.683428 91.6988413,151.622663 91.5469293,151.546707 C91.6796524,151.613068 91.8595481,151.64505 92.0410429,151.676232 C92.0122596,151.694621 91.9874739,151.711411 91.956292,151.732199 M27.2681924,151.473149 C28.2420278,151.988851 27.5184473,151.665038 27.2681924,151.473149 M683.330267,135.263346 C678.765713,134.008874 675.115029,136.825641 673.495168,140.847309 C673.036234,141.985849 673.207335,141.431771 673.487972,140.816127 C672.949884,141.899499 672.531727,143.074019 672.036813,144.170183 C670.235458,148.152674 668.312572,152.080797 666.262561,155.940959 C661.24467,165.39228 656.196396,174.033671 648.709537,180.948862 C648.400915,181.234297 646.37409,182.864552 646.652329,182.705444 C645.884774,183.24753 645.09883,183.763231 644.277706,184.222165 C643.869942,184.450032 643.453384,184.659511 643.033627,184.863393 C643.001645,184.872987 642.97606,184.880183 642.94168,184.891377 C642.61467,184.990519 642.276466,185.078468 641.943059,185.172813 C641.61365,184.573961 641.227474,183.977506 640.933244,183.385849 C640.779733,182.98768 640.622225,182.59111 640.486304,182.186545 C640.175284,181.258283 639.861066,180.333219 639.57883,179.396162 C638.881634,177.086301 638.296373,174.74286 637.744693,172.394621 C636.592561,167.494262 635.617926,162.553926 634.524959,157.640774 C632.584484,148.921029 630.576848,138.147275 624.00066,131.568688 C616.609745,124.176174 606.322908,127.04571 600.107312,134.297506 C593.2273,142.323254 589.020139,152.31826 584.402016,161.714413 C582.312827,165.964749 580.212445,170.25746 577.629143,174.235154 C577.528401,174.390264 577.25416,174.764447 576.979119,175.13943 C576.944739,175.069071 576.910359,174.996313 576.876779,174.923555 C576.691286,174.458225 576.508992,173.991295 576.33949,173.520368 C574.569316,168.60082 573.492341,163.42622 572.591263,158.2868 C572.325017,156.769279 572.081159,155.247761 571.85409,153.724644 C571.780533,153.228932 571.710174,152.733219 571.638216,152.238306 C571.61343,152.072002 571.59584,151.952072 571.580649,151.849731 C571.570255,151.759384 571.555863,151.645849 571.534276,151.477147 C571.237648,149.1433 570.970603,146.806255 570.737937,144.465212 C570.514867,142.218514 570.308586,139.967819 570.166269,137.713926 C569.917613,133.760218 567.31832,130.346997 563.234287,129.861678 C559.527636,129.420334 555.2773,131.633451 554.461773,135.588758 C548.716304,163.441411 541.311796,191.485154 530.775504,217.917831 C530.350151,218.986012 529.916002,220.050994 529.475458,221.112779 C529.451472,221.171145 529.433082,221.215119 529.415492,221.258294 C529.410695,221.270287 529.407497,221.276684 529.4027,221.288677 C529.158042,221.859546 528.911784,222.428816 528.662329,222.997286 C527.792433,224.979337 526.889757,226.947796 525.943105,228.893868 C524.183326,232.515768 522.283627,236.079302 520.116083,239.475733 C519.399699,240.599082 518.640139,241.691249 517.859791,242.769824 C517.712677,242.943323 516.973905,243.899569 516.778019,244.126637 C516.18956,244.807043 515.581112,245.471458 514.940684,246.103092 C514.503337,246.532443 514.037207,246.927414 513.593465,247.348769 C513.539096,247.400739 513.500718,247.439117 513.457543,247.481492 C513.419965,247.499082 513.390382,247.511875 513.345608,247.534262 C512.865886,247.774922 512.317404,248.114725 511.863268,248.425745 C511.801703,248.452929 511.73934,248.480913 511.656188,248.52009 C511.32518,248.676 510.936605,248.683196 510.580012,248.759951 C510.567219,248.755154 510.551228,248.748758 510.537636,248.743161 C510.615191,248.711979 510.68555,248.685594 510.752711,248.660809 C510.633581,248.671203 510.501657,248.676 510.361738,248.673601 C510.276987,248.64162 510.178644,248.604841 510.063511,248.563265 C509.774079,248.458526 509.595782,248.404158 509.483048,248.376973 C509.432677,248.344992 509.388702,248.316209 509.325539,248.277031 C509.173627,248.182686 509.060892,248.121921 508.966547,248.074749 C508.949757,248.045166 508.939363,248.021979 508.919374,247.987599 C508.809838,247.79651 508.595562,247.58943 508.395678,247.400739 C508.112642,246.897831 507.830406,246.387727 507.536976,245.892813 C507.378667,245.409893 507.205168,244.93257 507.061251,244.443254 C506.809397,243.583752 506.637497,242.713057 506.438413,241.840762 C506.402433,241.683254 506.375249,241.522547 506.348065,241.36184 C506.429618,241.883138 506.285701,241.110786 506.254519,240.798966 C506.244125,240.735003 506.234531,240.669441 506.223337,240.606278 C506.234531,240.670241 506.243326,240.722211 506.252121,240.778178 C506.02905,238.544273 505.932306,236.30717 505.945098,234.062871 C505.958691,231.691446 506.081819,229.32162 506.272109,226.95899 C506.37365,225.700519 506.49438,224.444447 506.6319,223.189975 C506.694264,222.618306 506.760626,222.046637 506.829386,221.474969 C506.824589,221.514146 507.010881,220.112559 507.041263,219.860705 C510.352943,196.405502 518.094855,173.890554 521.944623,150.565676 C522.65701,146.248978 520.865249,142.045815 516.359861,140.730577 C512.021576,139.463312 507.728065,138.026545 503.463337,136.53301 C499.316141,135.080253 495.197729,133.543543 491.12489,131.8933 C490.592399,131.677425 490.061506,131.459152 489.530614,131.240878 C489.43467,131.201701 489.360313,131.171319 489.285156,131.140137 C489.257972,131.128144 489.237984,131.120148 489.204403,131.104957 C488.245759,130.693196 487.289513,130.277437 486.337265,129.851284 C485.768795,129.596232 485.205921,129.328387 484.639849,129.067738 C485.280278,123.357448 485.38102,117.548016 484.063384,112.034413 C482.097323,103.812779 475.214114,98.1096848 466.567126,100.019778 C457.557949,102.010623 447.897949,110.436939 450.29336,120.490311 C452.224241,128.596811 460.013326,134.038457 467.047648,138.023346 C466.691054,139.753543 466.313673,141.479743 465.899513,143.198746 C463.548876,152.943497 460.428285,162.514749 456.698447,171.817356 C455.234496,175.468839 453.258042,179.940647 450.845041,184.703486 C448.808621,188.724355 446.606698,192.669268 444.145724,196.447877 C443.167092,197.950206 442.138088,199.418955 441.06591,200.856521 C440.878818,201.074795 439.992132,202.194146 439.77146,202.452396 C439.138227,203.192767 438.485805,203.917947 437.809397,204.61914 C436.965087,205.493833 436.073604,206.303764 435.156535,207.092906 C434.89029,207.288793 434.188297,207.82848 433.885272,208.01797 C433.563059,208.219453 433.218459,208.391353 432.874658,208.562454 C432.789108,208.663196 432.333372,208.96702 431.90562,209.085351 C431.855249,209.116533 431.80168,209.142918 431.752109,209.175699 C431.800881,209.143717 431.837659,209.120531 431.882433,209.091747 C431.764902,209.122929 431.650568,209.13892 431.547428,209.132524 C431.393917,209.12213 431.275585,209.116533 431.173244,209.113335 C430.978957,209.096545 430.758285,209.095745 430.538413,209.101342 C430.36971,209.046174 429.568575,208.937437 428.950533,208.804714 C428.767439,208.765537 428.638714,208.743149 428.531576,208.727958 C428.441228,208.660797 428.319699,208.578445 428.137404,208.467309 C427.404229,208.019569 426.659061,207.580623 425.923488,207.133683 C425.707613,207.002559 425.555701,206.915409 425.445365,206.857043 C425.363013,206.759499 425.219096,206.608387 424.960846,206.36213 C424.117335,205.556197 423.266628,204.777448 422.472688,203.918746 C421.901819,203.302304 421.359733,202.661075 420.826443,202.011852 C421.041518,202.245316 419.687103,200.465548 419.435249,200.096962 C418.149594,198.214853 416.977474,196.255988 415.893302,194.25155 C414.797937,192.226324 413.800915,190.148329 412.875852,188.039152 C412.868656,188.014366 412.825481,187.90403 412.762317,187.743323 C415.943673,183.309893 418.89956,178.716556 421.567613,173.995293 C426.674253,164.956533 431.268389,155.011898 432.263812,144.561956 C433.144102,135.332906 429.19679,126.242976 419.874195,123.271898 C410.146234,120.172095 399.817022,124.005873 394.549676,132.696035 C389.358285,141.262269 389.041669,152.496556 390.029896,162.173346 C390.827034,169.976023 392.442897,177.583613 394.826315,184.976927 C392.919421,187.301979 390.581576,190.002014 388.499583,192.205537 C386.88372,193.915745 385.219085,195.58118 383.492086,197.181052 C382.67416,197.938213 381.844241,198.682582 380.997532,199.407761 C380.658528,199.697993 378.698864,201.241098 378.715655,201.261087 C377.387625,202.235722 376.034809,203.174378 374.614832,204.013092 C373.85927,204.460032 373.079722,204.853404 372.308969,205.269963 C372.050718,205.409882 371.872422,205.512222 371.747694,205.588978 C371.645353,205.611365 371.519826,205.641747 371.337532,205.691319 C370.75387,205.852825 370.149421,206.01753 369.56336,206.198225 C369.545771,206.191029 369.388262,206.222211 368.963708,206.329349 C368.886153,206.349337 368.792607,206.358132 368.694264,206.36133 C368.497578,206.159048 368.291298,205.959163 368.09861,205.77607 C368.055435,205.734494 368.020255,205.682524 367.981877,205.635351 C366.827346,203.46381 365.386582,201.464969 364.32,199.219071 C364.037764,198.624216 363.776315,198.020565 363.498876,197.424911 C363.435713,197.289789 363.386941,197.185849 363.344565,197.0979 C363.310185,197.005954 363.26781,196.898016 363.213441,196.758097 C362.529838,195.019905 361.85343,193.281713 361.227393,191.521933 C359.930545,187.876046 358.772016,184.180589 357.694241,180.465143 C355.429954,172.661666 353.484681,164.761446 351.760081,156.809256 C352.629177,152.831562 353.441506,148.845873 354.209861,144.862582 C358.426616,123.005652 361.323337,100.823312 362.80248,78.6113882 C364.003384,60.5666489 364.575052,42.1005539 361.619965,24.1869386 C359.874577,13.6114693 354.169085,-2.75984009 340.138818,1.27222248 C326.0254,5.32747161 324.875666,26.7302642 324.113708,38.4234855 C322.706524,60.0237636 324.52467,81.9110753 327.016025,103.364239 C328.64708,117.418491 330.664311,131.46235 333.233221,145.397472 C315.341993,151.898503 297.092572,157.646371 278.660058,162.336452 C275.622619,163.108804 272.661935,163.865965 269.743627,164.570357 C269.072816,160.21768 267.919085,155.960948 266.121727,151.927286 C261.297323,141.099963 251.00409,135.623138 239.350846,137.553219 C229.861947,139.125108 222.501414,146.710311 219.895724,155.714691 C217.783349,156.669337 216.119513,158.574633 215.247219,160.928468 C214.406107,163.200751 213.975156,164.241747 213.254774,165.847217 C212.097845,168.424123 210.856964,170.963451 209.554519,173.469198 C206.909652,178.557448 204.006535,183.513775 200.865156,188.311794 C197.838911,192.933914 194.603187,197.402524 190.972491,201.569708 C187.811924,205.197205 183.688714,209.389975 180.406616,211.718225 C178.625249,212.982292 176.748737,214.14162 174.75949,215.050693 C174.705921,215.067483 174.641958,215.089071 174.556408,215.118654 C174.093476,215.278561 173.632144,215.437669 173.161217,215.57279 C172.702283,215.704714 172.236153,215.803856 171.774021,215.922188 C171.673279,215.947773 171.614114,215.966962 171.576535,215.982952 C171.547752,215.983752 171.527764,215.984552 171.495782,215.985351 C170.886535,216.010137 170.286883,215.989349 169.685632,215.968561 C170.627486,216.248399 170.13657,216.227611 169.582491,215.966162 C169.55051,215.964563 169.517729,215.964563 169.485747,215.962964 C169.48175,215.959766 169.478552,215.956568 169.474554,215.95257 C169.505736,215.95337 169.530521,215.954169 169.558505,215.954169 C169.527323,215.938978 169.495342,215.922188 169.46336,215.905397 C169.526524,215.922987 169.587289,215.940577 169.640857,215.955768 C170.518749,215.973358 170.035029,215.982153 169.390603,215.865421 C169.381008,215.859824 169.372213,215.854227 169.363418,215.84863 C169.161136,215.669534 168.955655,215.492037 168.766964,215.311342 C168.563882,215.117054 168.206489,214.681307 168.006605,214.440647 C167.785133,214.120832 167.556466,213.807414 167.349386,213.478005 C166.501078,212.124389 165.818273,210.694019 165.133071,209.254053 C165.128273,209.243659 165.125875,209.238063 165.121078,209.228468 C164.997949,208.923045 164.873221,208.617622 164.758088,208.308202 C164.454264,207.492674 164.154438,206.677147 163.873001,205.852825 C163.238969,203.991504 162.674496,202.106197 162.151599,200.210496 C157.874079,184.691492 156.591622,168.530461 152.474809,152.98987 C151.015655,147.479465 148.989629,141.084772 143.694299,138.116892 C135.495852,133.523555 127.854681,141.693219 123.57956,147.7641 C120.155944,152.625282 117.383152,157.987773 114.91898,163.481388 C112.958517,154.902362 109.849119,145.993126 103.537578,140.303625 C93.8455968,131.56549 82.1627694,137.151852 74.9261645,145.885988 C67.1986443,155.213381 61.6578563,166.193416 56.7095249,177.194239 C56.3953071,175.958155 56.0706952,174.72607 55.7308922,173.499581 C51.9003129,159.639615 45.2585632,139.371365 29.5140904,135.044273 C19.1033256,132.183532 9.55366165,138.023346 2.3810197,145.091249 C-4.96032445,152.325455 6.34831981,163.631701 13.6880649,156.398294 C14.445226,155.652327 15.2255736,154.938341 16.0075203,154.218758 C16.2993511,153.950114 16.6119699,153.69826 16.920591,153.444806 C17.1076825,153.297692 17.3387486,153.117796 17.45708,153.037842 C18.1638702,152.562118 18.8618656,152.085594 19.6014368,151.660241 C20.0683662,151.393196 21.3212399,150.849511 21.2492816,150.837518 C21.6666396,150.702396 22.0839977,150.571272 22.5013557,150.431353 C22.6980417,150.364992 22.9203129,150.33301 23.1377868,150.291435 C23.5943221,150.313822 24.1779838,150.338607 24.6305214,150.296232 C24.0556547,150.315421 23.6326999,150.018793 24.6665006,150.293833 C24.7072769,150.289036 24.7552491,150.288236 24.7936269,150.283439 C24.7528505,150.289036 24.7120742,150.292234 24.6720973,150.294633 C24.7832329,150.325015 24.9063615,150.358596 25.0534762,150.40257 C25.3093279,150.479326 25.5172074,150.55848 25.6787138,150.625641 C25.5539861,150.556881 25.4052723,150.47213 25.2045886,150.349801 C25.366095,150.448144 25.5427926,150.543289 25.7146929,150.640032 C26.0473001,150.78235 26.1352491,150.863103 25.8833951,150.735977 C26.2487833,150.93746 26.6197683,151.134946 26.9731634,151.318839 C27.0834994,151.375606 27.1754461,151.424378 27.2593975,151.468352 C27.7830939,151.95527 28.3283778,152.410206 28.8312862,152.920311 C29.3062109,153.401632 29.7347625,153.920531 30.1928969,154.417043 C30.3232213,154.558561 30.4199652,154.660102 30.503117,154.744853 C30.546292,154.827205 30.611854,154.940739 30.7165933,155.109441 C31.5625029,156.467054 32.4667787,157.771098 33.2455272,159.173486 C34.0706489,160.660623 34.8014253,162.190137 35.5218076,163.730044 C35.6705214,164.04666 35.8072422,164.368874 35.9471611,164.689488 C36.2965585,165.568178 36.6467555,166.44527 36.9761645,167.331156 C38.2498262,170.749175 39.340394,174.234355 40.3118308,177.749917 C42.0884009,184.17899 43.4684009,190.7168 44.5805562,197.291388 C44.8124218,198.660195 45.0314948,200.0306 45.2377752,201.403404 C45.4024797,202.500368 45.7238934,205.939975 45.4480533,202.781805 C45.529606,203.719662 45.6927115,204.65352 45.791854,205.589778 C46.7353071,214.451041 58.4013441,216.577008 61.4971495,207.715745 C67.1130939,191.641863 73.0336616,177.05352 82.755226,162.100589 C85.2609733,158.246023 86.700139,155.936162 90.6810313,152.620484 C89.5416918,153.595919 91.7636037,152.066406 91.9938702,151.838538 C92.0250521,151.808155 92.0370452,151.794563 92.0626304,151.768978 C92.0562341,151.767379 92.0514368,151.76578 92.0450406,151.763381 C92.0514368,151.760983 92.0570336,151.759384 92.0626304,151.756985 C92.066628,151.756985 92.0706257,151.756985 92.0738239,151.757784 C92.0738239,151.756985 92.0746234,151.756985 92.0746234,151.756985 C92.0714253,151.756185 92.0682271,151.756185 92.065029,151.756185 C92.0706257,151.753787 92.0762225,151.751388 92.0818192,151.74899 C92.1010081,151.729801 92.1217961,151.709812 92.1377868,151.693022 C92.1585747,151.69702 92.1801622,151.700218 92.2009502,151.704216 C92.2025492,151.703416 92.2041483,151.703416 92.2065469,151.702616 C92.208146,151.704216 92.2105446,151.705015 92.2121437,151.706614 C92.2705098,151.717808 92.3224797,151.732199 92.3752491,151.746591 C92.3488644,151.722605 92.3248783,151.700218 92.2976941,151.674633 L92.2984936,151.674633 C92.3248783,151.699418 92.351263,151.723404 92.3776477,151.74739 C92.4008343,151.754586 92.427219,151.758584 92.4488065,151.76578 C92.4895829,151.780171 92.5167671,151.789766 92.5519467,151.801759 C92.5111703,151.79936 92.4687949,151.795363 92.4248204,151.791365 C92.4352144,151.800959 92.4456083,151.810554 92.4560023,151.820148 C92.603117,151.860925 92.6191078,151.892906 92.5327578,151.891307 C92.5751333,151.917692 92.6207068,151.939279 92.6622827,151.966463 C92.8805562,151.933683 93.8959676,153.12739 92.8173928,152.156753 C93.0028853,152.331852 93.1843801,152.510148 93.3530823,152.704436 C93.6305214,153.02425 93.7752375,153.168966 93.8487949,153.224934 C93.9095597,153.348063 94.0063036,153.528758 94.1622132,153.806197 C94.6235458,154.624123 95.121657,155.415664 95.5510081,156.253578 C95.8020626,156.743694 96.0323291,157.241805 96.2689919,157.738317 C96.3185632,157.843856 96.3609386,157.931006 96.3961182,158.003764 C96.4265006,158.089314 96.4672769,158.202049 96.5304403,158.369951 C98.3989571,163.303891 99.68781,168.427321 100.695226,173.600322 C101.226918,176.32914 101.669861,179.073149 102.064832,181.824355 C102.10241,182.155363 102.351866,184.036672 102.399838,184.446035 C102.525365,185.512616 102.642097,186.580797 102.750834,187.649778 C102.993094,190.035594 103.211367,192.427808 103.339293,194.823219 C103.819815,203.834795 116.210232,205.667333 119.044589,196.949187 C123.418853,183.495386 127.709166,171.841342 134.850626,159.794725 C135.495052,158.708955 136.178656,157.650368 136.883847,156.605374 C137.562654,159.068746 138.110336,161.571295 138.623638,164.072246 C141.896141,179.998213 143.414461,196.634969 149.112758,211.958885 C151.621703,218.707773 154.978158,225.859627 161.407231,229.711794 C169.285064,234.432257 179.540718,231.275687 186.707764,226.719928 C195.35555,221.223115 202.42825,213.413242 208.560695,205.146834 C209.493754,219.735977 215.284797,236.259198 231.796825,238.564262 C257.604264,242.167773 267.18511,206.527634 269.660475,187.278793 C269.935516,185.137634 270.153789,182.966892 270.299305,180.781759 C282.379502,178.367159 294.358158,175.128236 306.194496,171.44717 C303.051518,175.179407 300.141205,179.073149 297.563499,183.147587 C291.578969,192.606104 287.491738,204.616742 292.917393,215.266568 C296.382584,222.069024 303.851854,227.893648 311.75927,227.763323 C325.370579,227.539453 333.278795,212.404227 337.954484,201.63607 C339.898158,197.159465 341.646744,192.602906 343.234623,187.988781 C344.341182,191.601087 345.541286,195.18301 346.888505,198.708966 C349.326292,205.092466 352.049513,211.994864 356.791564,217.083115 C370.477231,231.767402 391.276373,212.774413 400.80445,202.442802 C401.101078,202.122188 401.387312,201.789581 401.680742,201.464969 C409.749664,216.334749 425.521321,232.880357 442.66898,221.356637 C450.428482,216.14206 456.040429,208.029963 460.689733,200.074575 C466.428007,190.256267 470.956582,179.6768 474.810348,168.992593 C477.603928,161.245085 480.020927,153.322477 481.832677,145.275143 C487.093627,147.527437 492.456918,149.554262 497.821808,151.461156 C500.244403,152.323057 502.678192,153.164169 505.123175,153.970102 C501.246222,173.493984 495.26489,192.590114 492.122711,212.285096 C489.612966,228.019975 484.836535,259.233879 506.551147,264.152628 C523.3654,267.962419 534.038413,248.863891 540.057323,236.331156 C548.976952,217.757124 555.129386,197.84067 560.570232,178.014563 C560.603812,177.893034 560.635794,177.770705 560.669374,177.649175 C562.02299,181.468561 563.821947,185.047286 566.327694,188.050345 C569.534635,191.893717 574.39022,194.074853 579.405713,192.849163 C584.069409,191.709824 587.335516,188.055942 590.038749,184.338097 C596.235156,175.818236 600.010568,165.616151 604.881344,156.332732 C606.091043,154.027669 607.344716,151.742593 608.719119,149.531875 C609.284392,148.622802 609.867254,147.724123 610.480498,146.846232 C610.677984,146.563995 610.884264,146.288155 611.086547,146.009117 C611.268841,145.795641 611.713384,145.248758 611.814925,145.142419 C612.299444,144.637912 612.78956,144.150195 613.286871,143.666475 C613.28847,143.668874 613.28927,143.671272 613.290869,143.673671 C613.178934,143.798399 613.210915,143.799198 613.322051,143.729638 C613.741008,144.488399 614.167961,145.236765 614.564531,146.009117 C614.629293,146.135444 614.782804,146.501632 614.899537,146.786267 C615.078633,147.251597 615.256929,147.716927 615.423233,148.186255 C617.091866,152.897124 618.20482,157.799882 619.277798,162.673057 C621.456535,172.567321 622.857323,183.227541 627.545006,192.339859 C629.519061,196.176035 632.793963,199.877089 637.137045,200.964459 C642.452364,202.295687 648.368134,200.414378 652.934287,197.690357 C664.154183,190.996637 671.891298,178.712559 678.122885,167.58461 C682.181333,160.336012 685.80883,152.805977 688.914229,145.098445 C690.528494,141.091968 687.155249,136.313937 683.330267,135.263346" id="Fill-21" fill="#FFFFFF" mask="url(#mask-2)"></path>
                        </g>
                        <path d="M467.950484,114.656572 C467.943289,114.64298 467.936093,114.629388 467.929696,114.615796 C467.9241,114.612598 467.919302,114.6094 467.916104,114.6086 C467.926498,114.624591 467.939291,114.640582 467.950484,114.656572" id="Fill-24" fill="#FFFFFF"></path>
                        <path d="M410.672729,138.753723 C410.63675,138.761718 410.599971,138.768914 410.563992,138.77691 C410.332926,138.884847 410.097063,138.990386 409.897178,139.142298 C409.89478,139.143897 409.893181,139.146295 409.890782,139.148694 C409.988326,139.151892 410.234583,139.048752 410.672729,138.753723" id="Fill-26" fill="#FFFFFF"></path>
                        <path d="M92.4246605,151.944796 C92.4086698,151.930404 92.3934786,151.916013 92.3774878,151.901621 C92.3766883,151.900822 92.3758888,151.900822 92.3750892,151.900822 C92.3902804,151.915213 92.4062711,151.930404 92.4214623,151.944796 C92.4222619,151.944796 92.423861,151.944796 92.4246605,151.944796" id="Fill-28" fill="#FFFFFF"></path>
                        <path d="M92.3465458,151.93744 C92.3577393,151.944636 92.3697323,151.950233 92.3809258,151.957429 C92.4049119,151.962226 92.4312966,151.967023 92.4512851,151.97182 C92.4416906,151.963025 92.4312966,151.953431 92.4217022,151.944636 C92.3969166,151.942238 92.3713314,151.939839 92.3465458,151.93744" id="Fill-30" fill="#FFFFFF"></path>
                        <path d="M25.6789537,150.779552 C25.7589073,150.823526 25.8324647,150.864302 25.883635,150.889888 C25.8260684,150.857906 25.7716999,150.825925 25.7149328,150.793943 C25.7045388,150.789146 25.6893476,150.784349 25.6789537,150.779552" id="Fill-32" fill="#FFFFFF"></path>
                        <path d="M245.525506,153.245322 C245.518311,153.243723 245.511115,153.242924 245.504718,153.241324 C245.934869,153.379644 246.166735,153.443607 246.258681,153.461997 C246.006827,153.392437 245.76137,153.319679 245.525506,153.245322" id="Fill-34" fill="#FFFFFF"></path>
                        <path d="M238.513171,222.079338 C238.741839,221.936221 238.96411,221.78351 239.186381,221.630798 C239.20557,221.614008 239.225559,221.596418 239.243148,221.579628 C239.248745,221.574031 239.254342,221.569234 239.259939,221.563637 C238.391642,222.065746 238.316486,222.170486 238.513171,222.079338" id="Fill-36" fill="#FFFFFF"></path>
                        <path d="M92.5325979,152.044978 L92.5325979,152.044978 C92.5325979,152.044978 92.5325979,152.044978 92.5325979,152.044978 C92.5070127,152.020992 92.4814276,151.997805 92.4558424,151.973819 C92.4534438,151.97302 92.4534438,151.97302 92.4510452,151.97222 C92.4734322,151.993008 92.4990174,152.018593 92.5206049,152.038582 C92.4750313,152.009798 92.4270591,151.985013 92.3814855,151.957829 C92.3239189,151.945036 92.2639537,151.932243 92.1816014,151.92105 C92.2367694,151.926647 92.2911379,151.932243 92.3463059,151.93784 C92.3023314,151.911455 92.2575574,151.88587 92.2127833,151.860285 C92.2087856,151.859486 92.2047879,151.858686 92.2007903,151.857886 C92.1624125,151.871479 92.1224357,151.887469 92.0824589,151.90266 C92.0792607,151.905859 92.0776616,151.907458 92.0744635,151.910656 C92.0928528,151.912255 92.1112422,151.913854 92.1296315,151.916253 C92.1136408,151.913854 92.0912538,151.913054 92.073664,151.911455 C92.0696663,151.915453 92.0664681,151.918651 92.0624705,151.922649 C92.2935365,152.0074 92.4494461,152.042579 92.5278007,152.044978 C92.6365377,152.146519 92.7340811,152.236067 92.8172329,152.310424 C92.7228876,152.221676 92.6277428,152.132927 92.5325979,152.044978" id="Fill-38" fill="#FFFFFF"></path>
                    </g>
                    <g id="Theworldis-2" transform="translate(0.324000, 69.010000)" fill="#013236" fill-rule="nonzero">
                        <path d="M27.108,9.396 L17.82,9.396 L17.82,36.99 L9.288,36.99 L9.288,9.396 L-1.42108547e-13,9.396 L-1.42108547e-13,2.7 L27.108,2.7 L27.108,9.396 Z M55.404,36.99 L47.088,36.99 L47.088,22.518 C47.088,19.602 46.278,17.712 43.362,17.712 C40.446,17.712 39.042,20.304 38.718,22.194 L38.718,36.99 L30.402,36.99 L30.402,1.674 L38.718,1.674 L38.718,15.282 C40.23,13.122 42.768,10.8 46.656,10.8 C53.028,10.8 55.404,14.742 55.404,20.79 L55.404,36.99 Z M84.834,26.19 L67.716,26.19 C67.878,29.97 70.794,31.482 74.034,31.482 C77.274,31.482 80.406,29.97 81.432,29.106 L84.132,33.912 C84.132,33.912 80.622,37.53 72.846,37.53 C65.07,37.53 59.4,32.778 59.4,24.192 C59.4,15.552 65.124,10.8 72.792,10.8 C80.46,10.8 84.834,16.2 84.834,24.03 L84.834,26.19 Z M77.004,21.168 C77.004,18.522 75.546,16.254 72.468,16.254 C69.336,16.254 67.824,18.63 67.554,21.168 L77.004,21.168 Z M136.458,11.34 L129.114,36.99 L120.744,36.99 L116.046,20.52 L111.348,36.99 L103.032,36.99 L95.634,11.34 L104.112,11.34 L107.784,28.566 L112.104,11.34 L119.988,11.34 L124.254,28.566 L127.926,11.34 L136.458,11.34 Z M164.97,24.138 C164.97,32.508 159.516,37.53 151.416,37.53 C143.262,37.53 137.808,32.508 137.808,24.138 C137.808,15.822 143.262,10.8 151.362,10.8 C159.516,10.8 164.97,15.768 164.97,24.138 Z M156.492,24.138 C156.492,20.196 154.926,16.956 151.416,16.956 C147.906,16.956 146.286,20.196 146.286,24.138 C146.286,28.08 147.852,31.374 151.362,31.374 C154.872,31.374 156.492,28.134 156.492,24.138 Z M186.786,11.07 L185.868,18.9 C185.868,18.9 184.842,18.522 183.546,18.522 C182.466,18.522 181.494,18.738 180.576,19.332 C179.226,20.196 178.038,21.762 177.552,24.03 L177.552,36.99 L169.236,36.99 L169.236,11.34 L177.066,11.34 L177.552,15.552 C178.686,13.176 181.44,10.8 184.734,10.8 C186.246,10.8 186.786,11.07 186.786,11.07 Z M198.45,36.99 L190.134,36.99 L190.134,1.674 L198.45,1.674 L198.45,36.99 Z M229.716,36.99 L222.156,36.99 L221.454,33.642 C220.806,34.452 218.862,37.53 213.84,37.53 C207.198,37.53 202.716,32.076 202.716,24.138 C202.716,16.254 207.144,10.8 213.84,10.8 C218.7,10.8 220.968,13.986 221.4,14.742 L221.4,1.674 L229.716,1.674 L229.716,36.99 Z M221.67,24.084 C221.67,20.25 219.888,17.064 216.486,17.064 C213.03,17.064 211.194,20.25 211.194,24.084 C211.194,27.864 212.922,31.104 216.378,31.104 C219.834,31.104 221.67,27.918 221.67,24.084 Z M253.638,4.32 C253.638,6.966 251.694,8.694 249.048,8.694 C246.402,8.694 244.458,7.02 244.458,4.374 C244.458,1.728 246.402,-1.42108547e-14 249.048,-1.42108547e-14 C251.694,-1.42108547e-14 253.638,1.674 253.638,4.32 Z M253.206,36.99 L244.89,36.99 L244.89,11.34 L253.206,11.34 L253.206,36.99 Z M279.396,28.782 C279.396,32.184 277.668,34.074 276.48,35.046 C275.292,36.018 273.078,37.53 267.786,37.53 C262.548,37.53 258.39,35.1 256.716,33.534 L260.064,28.404 C262.494,30.564 266.22,31.644 268.056,31.644 C269.892,31.644 271.512,31.32 271.512,29.862 C271.512,28.35 269.082,27.864 267.408,27.432 C265.734,26.946 264.438,26.568 263.196,26.082 C261.954,25.542 258.012,24.03 258.012,19.008 C258.012,14.04 262.224,10.746 268.92,10.746 C275.616,10.746 279.288,14.148 279.288,14.148 L276.426,19.062 C273.996,17.172 270.972,16.416 269.244,16.416 C267.516,16.416 265.842,16.74 265.842,18.198 C265.842,19.656 268.164,20.088 270.108,20.628 C271.998,21.168 273.564,21.708 274.482,22.086 C275.454,22.464 279.396,24.084 279.396,28.782 Z" id="Theworldis"></path>
                    </g>
                </g>
            </g>
        </g>
    </g>
</svg>