<?xml version="1.0" encoding="UTF-8"?>
<svg width="17px" height="16px" viewBox="0 0 17 16" version="1.1" xmlns="http://www.w3.org/2000/svg" xmlns:xlink="http://www.w3.org/1999/xlink">
    <!-- Generator: Sketch 55.2 (78181) - https://sketchapp.com -->
    <title>Group</title>
    <desc>Created with Sketch.</desc>
    <g id="UI" stroke="none" stroke-width="1" fill="none" fill-rule="evenodd">
        <g id="3.4-Modelo" transform="translate(-1021.000000, -193.000000)" stroke="#4D5C78">
            <g id="Body" transform="translate(0.000000, 94.000000)">
                <g id="Top-content" transform="translate(475.000000, 94.000000)">
                    <g id="Options" transform="translate(450.000000, 0.000000)">
                        <g id="label">
                            <g id="Group" transform="translate(96.000000, 5.000000)">
                                <rect id="Rectangle" x="0.5" y="0.5" width="7.86956522" height="10.826087"></rect>
                                <rect id="Rectangle" x="8.63043478" y="4.19565217" width="7.86956522" height="10.826087"></rect>
                                <g id="down-arrow" transform="translate(12.565217, 9.239130) rotate(90.000000) translate(-12.565217, -9.239130) translate(10.347826, 8.130435)" fill="#4D5C78" fill-rule="nonzero" stroke-width="0.5">
                                    <path d="M4.38940691,0.0428481411 C4.32828375,-0.0142827137 4.22895861,-0.0142827137 4.16783546,0.0428481411 L2.21953474,1.86746482 L0.267413824,0.0428481411 C0.206290664,-0.0142827137 0.10696553,-0.0142827137 0.0458423698,0.0428481411 C-0.0152807899,0.099978996 -0.0152807899,0.192816635 0.0458423698,0.24994749 L2.10492881,2.17454316 C2.13549039,2.20310859 2.17369237,2.2173913 2.21571454,2.2173913 C2.25391652,2.2173913 2.29593869,2.20310859 2.32650027,2.17454316 L4.38558671,0.24994749 C4.45053007,0.192816635 4.45053007,0.099978996 4.38940691,0.0428481411 Z" id="Path"></path>
                                </g>
                                <g id="down-arrow" transform="translate(4.434783, 6.282609) scale(-1, 1) rotate(90.000000) translate(-4.434783, -6.282609) translate(2.217391, 5.173913)" fill="#4D5C78" fill-rule="nonzero" stroke-width="0.5">
                                    <path d="M4.38940691,0.0428481411 C4.32828375,-0.0142827137 4.22895861,-0.0142827137 4.16783546,0.0428481411 L2.21953474,1.86746482 L0.267413824,0.0428481411 C0.206290664,-0.0142827137 0.10696553,-0.0142827137 0.0458423698,0.0428481411 C-0.0152807899,0.099978996 -0.0152807899,0.192816635 0.0458423698,0.24994749 L2.10492881,2.17454316 C2.13549039,2.20310859 2.17369237,2.2173913 2.21571454,2.2173913 C2.25391652,2.2173913 2.29593869,2.20310859 2.32650027,2.17454316 L4.38558671,0.24994749 C4.45053007,0.192816635 4.45053007,0.099978996 4.38940691,0.0428481411 Z" id="Path"></path>
                                </g>
                            </g>
                        </g>
                    </g>
                </g>
            </g>
        </g>
    </g>
</svg>