<?xml version="1.0" encoding="UTF-8"?>
<svg width="17px" height="28px" viewBox="0 0 17 28" version="1.1" xmlns="http://www.w3.org/2000/svg" xmlns:xlink="http://www.w3.org/1999/xlink">
    <!-- Generator: Sketch 55.2 (78181) - https://sketchapp.com -->
    <title>down-arrow-on-document</title>
    <desc>Created with Sketch.</desc>
    <g id="UI" stroke="none" stroke-width="1" fill="none" fill-rule="evenodd">
        <g id="3.4-Modelo" transform="translate(-734.000000, -833.000000)" fill="#C67230" fill-rule="nonzero">
            <g id="Body" transform="translate(0.000000, 94.000000)">
                <g id="table" transform="translate(450.000000, 494.000000)">
                    <g id="side-file" transform="translate(0.000000, 65.000000)">
                        <g id="li" transform="translate(0.000000, 180.000000)">
                            <g id="down-arrow-on-document" transform="translate(284.000000, 0.000000)">
                                <path d="M3.75647283,11.5621564 C3.58370579,11.3902046 3.3012032,11.3902046 3.12957528,11.5621564 C2.95680824,11.7333556 2.95680824,12.0117895 3.12957528,12.1829888 L8.68432044,17.6877025 C8.68507986,17.688455 8.68507986,17.688455 8.68621898,17.6892076 L9.00023732,18 L9.31349624,17.6892076 C9.31425565,17.688455 9.31425565,17.688455 9.31501507,17.6877025 L14.8701399,12.1829888 C15.0432867,12.0117895 15.0432867,11.7333556 14.8701399,11.5621564 C14.6977526,11.3902046 14.4163891,11.3902046 14.2432424,11.5621564 L9.44411572,16.3158511 L9.44411572,0.439474069 C9.44411572,0.19678505 9.24666767,0 9.00099673,0 C8.75722434,0 8.55749804,0.19678505 8.55749804,0.439474069 L8.55749804,16.3158511 L3.75647283,11.5621564 Z" id="Path"></path>
                                <path d="M12.0084226,6 C11.7563858,6 11.5527276,6.20441166 11.5527276,6.45563515 C11.5527276,6.70607845 11.7563858,6.9112703 12.0084226,6.9112703 L16.0890001,6.9112703 L16.0890001,20.7843464 L9.78456843,20.7843464 L9.78456843,27.0887297 L0.911390081,27.0887297 L0.911390081,6.9112703 L4.99313795,6.9112703 C5.24478461,6.9112703 5.44883299,6.70607845 5.44883299,6.45563515 C5.44883299,6.20441166 5.24478461,6 4.99313795,6 L0,6 L0,28 L10.4657701,28 L17,21.5871693 L17,6 L12.0084226,6 L12.0084226,6 Z M15.5888279,21.6956167 L10.6959585,26.4981204 L10.6959585,21.6956167 L15.5888279,21.6956167 Z" id="Shape"></path>
                            </g>
                        </g>
                    </g>
                </g>
            </g>
        </g>
    </g>
</svg>