<?xml version="1.0" encoding="UTF-8"?>
<svg width="30px" height="25px" viewBox="0 0 30 25" version="1.1" xmlns="http://www.w3.org/2000/svg" xmlns:xlink="http://www.w3.org/1999/xlink">
    <!-- Generator: Sketch 55.2 (78181) - https://sketchapp.com -->
    <title>gallery</title>
    <desc>Created with Sketch.</desc>
    <g id="UI" stroke="none" stroke-width="1" fill="none" fill-rule="evenodd">
        <g id="3.4-Modelo" transform="translate(-864.000000, -191.000000)" fill="#4D5C78" fill-rule="nonzero">
            <g id="Body" transform="translate(0.000000, 94.000000)">
                <g id="Top-content" transform="translate(475.000000, 94.000000)">
                    <g id="gallery" transform="translate(389.000000, 3.000000)">
                        <path d="M27.509079,4.97736625 L27.2518158,4.97736625 C27.1012116,3.67110588 26.0627747,2.63545786 24.7650146,2.50872418 C24.6160126,1.10052089 23.4358978,0 22.006073,0 L4.29794309,0 C1.92810059,0 0,1.95174478 0,4.35041686 L0,16.9188285 C0,18.3763815 1.10183719,19.5776869 2.50625613,19.7150782 C2.65365598,21.1082217 3.81065367,22.1994751 5.21987918,22.2224123 C5.22354129,22.469624 5.26176451,22.7082633 5.33111572,22.9334646 C5.64674379,23.95915 6.5938568,24.7058824 7.70965576,24.7058824 L27.509079,24.7058824 C28.8825989,24.7058824 30,23.5747786 30,22.184647 L30,7.49883332 C30,6.10846998 28.8825989,4.97736625 27.509079,4.97736625 Z M28.828125,7.49883332 L28.828125,17.2105244 L26.2792969,15.2615599 C25.5828094,14.7291395 24.6409607,14.7207987 23.9355469,15.2409396 L20.7112884,17.6189915 L14.5626068,11.2021439 C13.8301849,10.4375715 12.6383972,10.3905387 11.8494415,11.0953354 L6.39083859,15.9702953 L6.39083859,7.49883332 C6.39083859,6.76252691 6.98249818,6.16361189 7.70965576,6.16361189 L27.509079,6.16361189 C28.2364655,6.16361189 28.828125,6.76252691 28.828125,7.49883332 Z M28.828125,22.1844153 C28.828125,22.9207217 28.2364655,23.5196367 27.5093079,23.5196367 L7.70965576,23.5196367 C7.11891176,23.5196367 6.61743164,23.1241443 6.45034793,22.5810662 C6.41166686,22.4557227 6.39083859,22.3225017 6.39083859,22.184647 L6.39083859,17.5520334 L12.6248932,11.984788 C12.9437256,11.699811 13.425293,11.7188095 13.7214661,12.0278821 L16.4964294,14.9239896 C16.4964294,14.9242213 16.4964294,14.9242213 16.4966583,14.9242213 L22.0198059,20.6884021 C22.1347046,20.8084167 22.2873688,20.8686558 22.4404907,20.8686558 C22.5874329,20.8686558 22.7346039,20.8130505 22.8483581,20.7013766 C23.0804443,20.4731633 23.0861664,20.0978278 22.8609466,19.8626638 L21.535263,18.4790195 L24.6256256,16.1998987 C24.9108124,15.9895255 25.2914429,15.9927691 25.5729675,16.2080078 L28.828125,18.6970385 L28.828125,22.1844153 Z M3.66210938,19.4141147 L3.66210938,5.40992889 C3.66210938,5.35038487 3.66508482,5.29130432 3.67103578,5.23338214 C3.75846861,4.36292808 4.48699951,3.68153186 5.36956787,3.68153186 L12.5367737,3.68153186 C12.8604126,3.68153186 13.1227112,3.41601675 13.1227112,3.08840903 C13.1227112,2.76080138 12.8604126,2.49528621 12.5367737,2.49528621 L5.36956787,2.49528621 C3.78181459,2.49528621 2.49023438,3.80270501 2.49023438,5.40992889 L2.49023438,18.5165531 C1.74156188,18.3800885 1.171875,17.7156056 1.171875,16.9188285 L1.171875,4.35041686 C1.171875,2.60580172 2.57423402,1.18624564 4.29794309,1.18624564 L22.006073,1.18624564 C22.7838135,1.18624564 23.4340668,1.749944 23.5789489,2.49528621 L17.2242737,2.49528621 C16.9006348,2.49528621 16.6383362,2.76080138 16.6383362,3.08840903 C16.6383362,3.41601675 16.9006348,3.68153186 17.2242737,3.68153186 L24.1950989,3.68153186 L24.1957855,3.68153186 L24.4963073,3.68153186 C25.2694702,3.68153186 25.916748,4.23874299 26.0666657,4.97736625 L7.70965576,4.97736625 C6.33636475,4.97736625 5.21896359,6.10846998 5.21896359,7.49883332 L5.21896359,17.2839697 L5.21896359,17.2844331 L5.21896359,21.0361666 C4.35630797,21.0113759 3.66210938,20.2933729 3.66210938,19.4141147 Z" id="Shape"></path>
                        <path d="M22.9412973,8.82352941 C21.4814342,8.82352941 20.2941176,10.0110876 20.2941176,11.4704674 C20.2941176,12.9300888 21.4816759,14.1176471 22.9412973,14.1176471 C24.4006771,14.1176471 25.5882353,12.9300888 25.5882353,11.4704674 C25.5882353,10.0110876 24.4006771,8.82352941 22.9412973,8.82352941 Z M22.9412973,12.8805569 C22.1637668,12.8805569 21.5312078,12.2479979 21.5312078,11.470709 C21.5312078,10.6931785 22.1637668,10.0606196 22.9412973,10.0606196 C23.7185861,10.0606196 24.3511451,10.6931785 24.3511451,11.470709 C24.3511451,12.2479979 23.7185861,12.8805569 22.9412973,12.8805569 Z" id="Shape"></path>
                        <path d="M14.151597,3.25708331 C14.1626264,3.2836267 14.1762408,3.30913595 14.1920956,3.33309398 C14.2081227,3.35722435 14.2265625,3.3798035 14.246898,3.40014193 C14.2672334,3.42030802 14.2896369,3.43892288 14.3139361,3.45529707 C14.3377183,3.47115417 14.3637408,3.48477061 14.3902803,3.49580164 C14.4166475,3.50683266 14.4445657,3.51527828 14.4728286,3.52096615 C14.5009191,3.52665401 14.5300436,3.52941176 14.5588235,3.52941176 C14.5879481,3.52941176 14.6165556,3.52665401 14.6453355,3.52096615 C14.673426,3.51527828 14.7008272,3.50683266 14.7277114,3.49580164 C14.7542509,3.48477061 14.7797564,3.47115417 14.8037109,3.45529707 C14.8278378,3.43892288 14.8504136,3.42030802 14.8707491,3.40014193 C14.8914292,3.3798035 14.9095243,3.35722435 14.9258961,3.33309398 C14.9417509,3.30913595 14.9553653,3.2836267 14.9663948,3.25708331 C14.9774242,3.23019514 14.9858685,3.20244522 14.9915556,3.1746953 C14.9972426,3.1459112 15,3.11678241 15,3.08817066 C15,3.0593866 14.9972426,3.03025776 14.9915556,3.00216315 C14.9858685,2.97389614 14.9774242,2.94597383 14.9663948,2.91960279 C14.9553653,2.89271466 14.9417509,2.86703306 14.9258961,2.84324738 C14.9095243,2.81894466 14.8914292,2.79653791 14.8707491,2.77619943 C14.8504136,2.75586095 14.8278378,2.73741848 14.8037109,2.72138899 C14.7797564,2.70553193 14.7542509,2.69191549 14.7277114,2.68088447 C14.7008272,2.66985344 14.673426,2.66140782 14.6453355,2.65571991 C14.5882927,2.64417179 14.529699,2.64417179 14.4728286,2.65571991 C14.4445657,2.66140782 14.4166475,2.66985344 14.3902803,2.68088447 C14.3637408,2.69191549 14.3377183,2.70553193 14.3139361,2.72138899 C14.2896369,2.73741848 14.2672334,2.75586095 14.246898,2.77619943 C14.2265625,2.79653791 14.2081227,2.81894466 14.1920956,2.84324738 C14.1762408,2.86703306 14.1626264,2.89271466 14.151597,2.91960279 C14.1405675,2.94597383 14.1321231,2.97389614 14.1264361,3.00216315 C14.1207491,3.03025776 14.1176471,3.0593866 14.1176471,3.08817066 C14.1176471,3.11678241 14.1207491,3.1459112 14.1264361,3.1746953 C14.1321231,3.20244522 14.1405675,3.23019514 14.151597,3.25708331 Z" id="Path"></path>
                    </g>
                </g>
            </g>
        </g>
    </g>
</svg>