<?xml version="1.0" encoding="UTF-8"?>
<svg width="14px" height="14px" viewBox="0 0 14 14" version="1.1" xmlns="http://www.w3.org/2000/svg" xmlns:xlink="http://www.w3.org/1999/xlink">
    <!-- Generator: Sketch 55.2 (78181) - https://sketchapp.com -->
    <title>share</title>
    <desc>Created with Sketch.</desc>
    <g id="UI" stroke="none" stroke-width="1" fill="none" fill-rule="evenodd">
        <g id="3.4-Modelo" transform="translate(-1156.000000, -194.000000)" fill="#7888A5" fill-rule="nonzero">
            <g id="Body" transform="translate(0.000000, 94.000000)">
                <g id="Top-content" transform="translate(475.000000, 94.000000)">
                    <g id="Options" transform="translate(450.000000, 0.000000)">
                        <g id="label" transform="translate(134.000000, 0.000000)">
                            <g id="share" transform="translate(97.000000, 6.000000)">
                                <path d="M13.6215934,0 L9.84890956,0 C9.63989907,0 9.47050299,0.16793437 9.47050299,0.375141392 C9.47050299,0.582348413 9.63989907,0.750282783 9.84890956,0.750282783 L12.7138611,0.750282783 L5.35341003,8.11712186 C5.21224664,8.26527341 5.21608985,8.49783177 5.36198329,8.64129402 C5.50787676,8.7847563 5.74260709,8.78636825 5.8907178,8.6452506 L13.2431869,1.28676427 L13.2431869,4.11527177 C13.2431869,4.32247875 13.4125829,4.49041316 13.6215934,4.49041316 C13.830604,4.49041316 14,4.32247875 14,4.11527177 L14,0.375141392 C14,0.16793437 13.830604,0 13.6215934,0 Z" id="Path"></path>
                                <path d="M11.8833836,7.78556567 C11.6808853,7.78556567 11.5167672,7.94968377 11.5167672,8.15218207 L11.5167672,12.166918 C11.5160512,12.7741264 11.0241264,13.2660512 10.416918,13.2667672 L1.83308198,13.2667672 C1.22587358,13.2660512 0.733948832,12.7741264 0.733232794,12.166918 L0.733232794,3.58308198 C0.733948832,2.97587358 1.22587358,2.48394883 1.83308198,2.48323279 L5.84781793,2.48323279 C6.05031623,2.48323279 6.21443433,2.31911469 6.21443433,2.1166164 C6.21443433,1.91411814 6.05031623,1.75 5.84781793,1.75 L1.83308198,1.75 C0.821163464,1.75114568 0.00114567624,2.57116346 0,3.58308198 L0,12.166918 C0.00114567624,13.1788365 0.821163464,13.9988543 1.83308198,14 L10.416918,14 C11.4288365,13.9988543 12.2488543,13.1788365 12.25,12.166918 L12.25,8.15218207 C12.25,7.94968377 12.0858819,7.78556567 11.8833836,7.78556567 Z" id="Path"></path>
                            </g>
                        </g>
                    </g>
                </g>
            </g>
        </g>
    </g>
</svg>