<?xml version="1.0" encoding="UTF-8"?>
<svg width="26px" height="26px" viewBox="0 0 26 26" version="1.1" xmlns="http://www.w3.org/2000/svg" xmlns:xlink="http://www.w3.org/1999/xlink">
    <!-- Generator: Sketch 55.2 (78181) - https://sketchapp.com -->
    <title>video-player</title>
    <desc>Created with Sketch.</desc>
    <g id="UI" stroke="none" stroke-width="1" fill="none" fill-rule="evenodd">
        <g id="3.4-Modelo" transform="translate(-818.000000, -190.000000)" fill="#4D5C78" fill-rule="nonzero">
            <g id="Body" transform="translate(0.000000, 94.000000)">
                <g id="Top-content" transform="translate(475.000000, 94.000000)">
                    <g id="video-player" transform="translate(343.000000, 2.000000)">
                        <path d="M10.4089818,12.2327636 C10.4798909,12.2715273 10.5583636,12.2909091 10.6363636,12.2909091 C10.7247636,12.2909091 10.8126909,12.2658545 10.8902182,12.2171636 L16.0902182,8.90807273 C16.2263636,8.82109091 16.3090909,8.67076364 16.3090909,8.50909091 C16.3090909,8.34741818 16.2263636,8.19709091 16.0902182,8.11010909 L10.8902182,4.80101818 C10.7436727,4.70883636 10.5607273,4.70269091 10.4085091,4.78541818 C10.2577091,4.86861818 10.1636364,5.02745455 10.1636364,5.2 L10.1636364,11.8181818 C10.1636364,11.9907273 10.2577091,12.1495636 10.4089818,12.2327636 Z M11.1090909,6.06083636 L14.9561455,8.50909091 L11.1090909,10.9573455 L11.1090909,6.06083636 Z" id="Shape"></path>
                        <path d="M0.236363636,0 L0.236363636,26 L25.7636364,26 L25.7636364,0 L0.236363636,0 Z M24.8181818,0.945454545 L24.8181818,16.5454545 L1.18181818,16.5454545 L1.18181818,0.945454545 L24.8181818,0.945454545 Z M1.18181818,25.0545455 L1.18181818,17.4909091 L24.8181818,17.4909091 L24.8181818,25.0545455 L1.18181818,25.0545455 Z" id="Shape"></path>
                        <path d="M22.4545455,20.8 L11.1090909,20.8 L11.1090909,19.8545455 C11.1090909,19.5931273 10.8977818,19.3818182 10.6363636,19.3818182 C10.3749455,19.3818182 10.1636364,19.5931273 10.1636364,19.8545455 L10.1636364,20.8 L8.27272727,20.8 C8.01130909,20.8 7.8,21.0113091 7.8,21.2727273 C7.8,21.5341455 8.01130909,21.7454545 8.27272727,21.7454545 L10.1636364,21.7454545 L10.1636364,22.6909091 C10.1636364,22.9523273 10.3749455,23.1636364 10.6363636,23.1636364 C10.8977818,23.1636364 11.1090909,22.9523273 11.1090909,22.6909091 L11.1090909,21.7454545 L22.4545455,21.7454545 C22.7159636,21.7454545 22.9272727,21.5341455 22.9272727,21.2727273 C22.9272727,21.0113091 22.7159636,20.8 22.4545455,20.8 Z" id="Path"></path>
                        <path d="M3.54545455,19.3818182 C3.28403636,19.3818182 3.07272727,19.5931273 3.07272727,19.8545455 L3.07272727,22.6909091 C3.07272727,22.9523273 3.28403636,23.1636364 3.54545455,23.1636364 C3.80687273,23.1636364 4.01818182,22.9523273 4.01818182,22.6909091 L4.01818182,19.8545455 C4.01818182,19.5931273 3.80687273,19.3818182 3.54545455,19.3818182 Z" id="Path"></path>
                        <path d="M5.43636364,19.3818182 C5.17494545,19.3818182 4.96363636,19.5931273 4.96363636,19.8545455 L4.96363636,22.6909091 C4.96363636,22.9523273 5.17494545,23.1636364 5.43636364,23.1636364 C5.69778182,23.1636364 5.90909091,22.9523273 5.90909091,22.6909091 L5.90909091,19.8545455 C5.90909091,19.5931273 5.69778182,19.3818182 5.43636364,19.3818182 Z" id="Path"></path>
                    </g>
                </g>
            </g>
        </g>
    </g>
</svg>